<?xml version="1.0" encoding="UTF-8"?>
<svg xmlns="http://www.w3.org/2000/svg" width="640" height="420" viewBox="0 0 640 420" style="font-family:system-ui,Segoe UI,Roboto,Arial,sans-serif">
  <defs>
    <linearGradient id="bg" x1="0" y1="0" x2="1" y2="1">
      <stop offset="0%" stop-color="#0f172a"/>
      <stop offset="100%" stop-color="#1e293b"/>
    </linearGradient>
    <filter id="blur" x="-20%" y="-20%" width="140%" height="140%"><feGaussianBlur stdDeviation="4"/></filter>
  </defs>
  <rect width="640" height="420" fill="url(#bg)"/>
  <g transform="translate(350,120) scale(1.6)" opacity="0.25"><path d="M 60 60 L 180 60 L 220 100 L 200 130 L 140 140 L 120 170 L 100 170 L 90 150 L 60 150 Z" fill="#60a5fa" filter="url(#blur)"/></g>
  <g transform="translate(380,130)"><g transform="scale(0.9)"><path d="M40 40 L0 80 L0 140 L120 140 L120 80 Z" fill="#1c2541" stroke="#3a506b" stroke-width="3"/><rect x="48" y="92" width="24" height="36" fill="#0b132b" stroke="#f1f5f9"/><path d="M150 80 c-12 -18 -38 -18 -50 0 c-10 16 -2 36 25 54 c27 -18 35 -38 25 -54z" fill="#3a506b"/></g></g>
  <text x="20" y="400" fill="#9aa7b2" font-size="14">Background placeholder (replace with free stock photo related to housing &amp; neighborhoods)</text>
</svg>