<?xml version="1.0" encoding="UTF-8"?>
<svg xmlns="http://www.w3.org/2000/svg" width="1600" height="900" viewBox="0 0 1600 900" role="img" aria-labelledby="title desc">
  <title>Hearth — Florida Outline with House/Tree</title>
  <desc>Florida outline traced from provided PNG; house and tree icon centered. Outline-only, no counties.</desc>
  <defs>
    <path id="fl" d="M120.3,60.0 L123.0,60.0 L125.7,60.0 L128.4,60.0 L130.4,60.7 L132.4,61.4 L133.8,62.7 L135.8,63.4 L137.9,64.1 L139.9,64.7 L141.9,65.4 L143.3,66.8 L146.0,66.8 L147.3,68.1 L150.1,68.1 L152.1,68.8 L154.1,69.5 L155.5,70.8 L158.2,70.8 L159.5,72.2 L162.2,72.2 L164.9,72.2 L167.7,72.2 L170.4,72.2 L173.1,72.2 L175.8,72.2 L178.5,72.2 L180.5,71.5 L182.6,70.8 L185.3,70.8 L188.0,70.8 L190.7,70.8 L193.4,70.8 L196.1,70.8 L198.8,70.8 L200.2,72.2 L202.9,72.2 L205.6,72.2 L208.3,72.2 L211.0,72.2 L212.3,73.5 L215.1,73.5 L217.8,73.5 L220.5,73.5 L222.5,74.2 L224.5,74.9 L227.2,74.9 L229.9,74.9 L232.7,74.9 L234.0,76.2 L236.7,76.2 L239.4,76.2 L242.1,76.2 L244.8,76.2 L246.2,74.9 L248.2,74.2 L250.3,73.5 L251.6,72.2 L254.3,72.2 L255.7,70.8 L257.7,70.2 L259.7,69.5 L262.4,69.5 L265.2,69.5 L267.9,69.5 L269.2,68.1 L271.9,68.1 L274.6,68.1 L276.7,68.8 L278.7,69.5 L281.4,69.5 L284.1,69.5 L285.5,70.8 L288.2,70.8 L290.9,70.8 L292.2,72.2 L294.9,72.2 L297.0,72.9 L299.0,73.5 L301.7,73.5 L303.8,74.2 L305.8,74.9 L308.5,74.9 L310.5,75.6 L312.6,76.2 L315.3,76.2 L318.0,76.2 L320.7,76.2 L323.4,76.2 L326.1,76.2 L328.8,76.2 L330.2,77.6 L331.5,79.0 L332.9,80.3 L334.2,81.7 L335.6,83.0 L336.9,84.4 L338.3,85.7 L339.6,87.1 L341.0,88.4 L342.3,89.8 L343.7,91.1 L345.1,92.5 L345.7,94.5 L346.4,96.6 L347.1,98.6 L348.4,99.9 L349.1,102.0 L350.5,103.3 L353.2,103.3 L355.9,103.3 L357.9,104.0 L359.9,104.7 L362.7,104.7 L365.4,104.7 L368.1,104.7 L370.8,104.7 L372.8,105.4 L374.8,106.0 L377.6,106.0 L379.6,106.7 L381.6,107.4 L384.3,107.4 L387.0,107.4 L389.7,107.4 L392.4,107.4 L395.2,107.4 L397.9,107.4 L400.6,107.4 L403.3,107.4 L406.0,107.4 L408.7,107.4 L411.4,107.4 L414.1,107.4 L416.8,107.4 L419.5,107.4 L422.2,107.4 L424.9,107.4 L427.7,107.4 L430.4,107.4 L433.1,107.4 L435.8,107.4 L438.5,107.4 L441.2,107.4 L443.9,107.4 L446.6,107.4 L449.3,107.4 L452.0,107.4 L454.7,107.4 L457.4,107.4 L460.2,107.4 L462.9,107.4 L465.6,107.4 L468.3,107.4 L469.6,106.0 L472.3,106.0 L475.1,106.0 L477.8,106.0 L480.5,106.0 L483.2,106.0 L485.9,106.0 L487.2,107.4 L489.9,107.4 L491.3,108.8 L492.0,110.8 L493.3,112.1 L494.0,114.2 L496.0,114.8 L498.1,115.5 L499.4,116.9 L502.1,116.9 L504.8,116.9 L507.6,116.9 L510.3,116.9 L513.0,116.9 L515.7,116.9 L518.4,116.9 L521.1,116.9 L523.8,116.9 L526.5,116.9 L529.2,116.9 L531.9,116.9 L534.6,116.9 L537.3,116.9 L540.1,116.9 L542.8,116.9 L545.5,116.9 L548.2,116.9 L550.9,116.9 L553.6,116.9 L556.3,116.9 L559.0,116.9 L561.7,116.9 L564.4,116.9 L565.8,118.2 L568.5,118.2 L571.2,118.2 L573.9,118.2 L576.6,118.2 L578.0,119.6 L580.7,119.6 L583.4,119.6 L584.7,120.9 L587.4,120.9 L590.2,120.9 L591.5,122.3 L594.2,122.3 L596.9,122.3 L599.6,122.3 L602.3,122.3 L605.1,122.3 L607.8,122.3 L610.5,122.3 L613.2,122.3 L614.5,123.6 L616.6,124.3 L617.9,125.7 L619.3,127.0 L619.9,129.1 L620.6,131.1 L620.6,133.8 L620.6,136.5 L622.0,137.9 L622.7,139.9 L624.7,140.6 L626.7,141.2 L629.4,141.2 L630.8,139.9 L630.8,138.5 L630.1,136.5 L630.1,133.8 L628.8,132.4 L628.8,129.7 L628.8,127.0 L628.8,124.3 L628.8,121.6 L628.8,118.9 L628.1,116.9 L627.4,114.8 L627.4,112.1 L627.4,109.4 L627.4,106.7 L627.4,104.0 L628.1,102.0 L628.8,99.9 L630.1,98.6 L630.8,96.6 L632.1,95.2 L633.5,93.9 L634.8,92.5 L637.6,92.5 L638.9,91.1 L641.6,91.1 L644.3,91.1 L647.0,91.1 L649.7,91.1 L652.4,91.1 L654.5,91.8 L656.5,92.5 L658.5,93.2 L660.6,93.9 L661.9,95.2 L663.3,96.6 L665.3,97.2 L666.7,98.6 L668.0,99.9 L670.1,100.6 L672.1,101.3 L674.1,102.0 L676.1,101.3 L678.2,100.6 L680.2,99.9 L682.2,99.3 L683.6,97.9 L685.6,97.2 L687.7,96.6 L690.4,96.6 L693.1,96.6 L695.8,96.6 L697.1,97.9 L699.2,98.6 L699.8,100.6 L701.2,102.0 L701.9,104.0 L702.6,106.0 L703.2,108.1 L703.2,110.8 L703.2,113.5 L703.2,116.2 L703.2,118.9 L703.2,121.6 L703.2,124.3 L703.2,127.0 L703.2,129.7 L703.2,132.4 L703.2,135.2 L703.2,137.9 L703.2,140.6 L703.2,143.3 L703.2,146.0 L703.2,148.7 L703.2,151.4 L703.2,154.1 L704.6,155.5 L704.6,158.2 L704.6,160.9 L705.9,162.2 L705.9,164.9 L707.3,166.3 L707.3,169.0 L708.0,171.0 L708.6,173.1 L710.0,174.4 L710.7,176.5 L711.4,178.5 L711.4,181.2 L712.7,182.6 L712.7,185.3 L714.1,186.6 L714.7,188.6 L715.4,190.7 L716.8,192.0 L718.1,193.4 L718.1,196.1 L718.1,198.8 L719.5,200.2 L719.5,202.9 L720.2,204.9 L720.8,206.9 L720.8,209.6 L722.2,211.0 L722.9,213.0 L723.5,215.1 L724.9,216.4 L726.2,217.8 L726.2,220.5 L727.6,221.8 L728.3,223.9 L729.0,225.9 L729.6,227.9 L730.3,229.9 L731.0,232.0 L731.7,234.0 L732.3,236.0 L733.0,238.1 L733.0,240.8 L734.4,242.1 L734.4,244.8 L735.1,246.9 L735.7,248.9 L736.4,250.9 L737.1,253.0 L738.4,254.3 L739.8,255.7 L740.5,257.7 L741.1,259.7 L741.1,262.4 L741.8,264.5 L742.5,266.5 L742.5,269.2 L743.2,271.2 L743.9,273.3 L745.2,274.6 L745.9,276.7 L746.6,278.7 L747.9,280.1 L747.9,282.8 L749.3,284.1 L749.9,286.1 L750.6,288.2 L752.0,289.5 L752.0,292.2 L753.3,293.6 L754.7,294.9 L755.4,297.0 L756.0,299.0 L756.7,301.0 L757.4,303.1 L758.8,304.4 L759.4,306.5 L760.8,307.8 L761.5,309.8 L762.8,311.2 L763.5,313.2 L764.2,315.3 L765.5,316.6 L766.9,318.0 L768.2,319.3 L769.6,320.7 L770.3,322.7 L771.6,324.1 L772.3,326.1 L773.6,327.4 L774.3,329.5 L775.0,331.5 L776.4,332.9 L777.0,334.9 L777.7,336.9 L779.1,338.3 L780.4,339.6 L781.1,341.7 L781.8,343.7 L783.1,345.1 L783.8,347.1 L785.2,348.4 L786.5,349.8 L787.9,351.1 L789.2,352.5 L789.9,354.5 L791.9,355.2 L793.3,356.6 L794.6,357.9 L796.0,359.3 L796.7,361.3 L798.0,362.7 L799.4,364.0 L800.1,366.0 L800.7,368.1 L802.1,369.4 L802.1,372.1 L802.1,374.8 L802.1,377.6 L800.7,378.9 L799.4,380.3 L797.3,380.9 L795.3,381.6 L796.7,383.0 L796.7,385.7 L796.7,388.4 L796.7,391.1 L796.7,393.8 L796.7,396.5 L796.7,399.2 L796.7,401.9 L796.7,404.6 L796.7,407.3 L796.7,410.1 L796.7,412.8 L796.7,415.5 L796.7,418.2 L798.0,419.5 L799.4,420.9 L800.1,422.9 L802.1,423.6 L803.4,424.9 L804.1,427.0 L805.5,428.3 L806.1,430.4 L807.5,431.7 L808.9,433.1 L808.9,435.8 L810.2,437.1 L810.9,439.2 L812.2,440.5 L813.6,441.9 L814.3,443.9 L815.6,445.3 L815.6,448.0 L817.0,449.3 L818.3,450.7 L819.0,452.7 L819.7,454.7 L821.0,456.1 L821.0,458.8 L821.0,461.5 L821.0,464.2 L821.0,466.9 L821.0,469.6 L821.0,472.3 L821.0,475.1 L821.0,477.8 L822.4,479.1 L823.8,480.5 L825.1,481.8 L826.5,483.2 L827.1,485.2 L828.5,486.6 L829.2,488.6 L829.2,491.3 L830.5,492.7 L832.6,493.3 L833.9,494.7 L835.3,496.0 L835.9,498.1 L835.9,500.8 L835.9,503.5 L835.9,506.2 L835.9,508.9 L837.3,510.3 L839.3,510.9 L841.4,511.6 L842.7,513.0 L844.1,514.3 L844.1,517.0 L844.1,519.7 L842.7,521.1 L842.7,523.8 L842.7,526.5 L842.7,529.2 L842.7,531.9 L844.1,533.3 L844.7,535.3 L845.4,537.3 L845.4,540.1 L845.4,542.8 L846.8,544.1 L846.8,546.8 L847.4,548.9 L848.1,550.9 L848.8,552.9 L849.5,554.9 L850.8,556.3 L851.5,558.3 L852.2,560.4 L853.5,561.7 L854.9,563.1 L855.6,565.1 L856.2,567.1 L857.6,568.5 L858.3,570.5 L859.6,571.9 L861.0,573.2 L861.7,575.3 L863.0,576.6 L863.0,579.3 L862.3,581.4 L861.7,583.4 L861.0,585.4 L860.3,587.4 L859.0,588.8 L858.3,590.8 L857.6,592.9 L857.6,595.6 L856.9,597.6 L856.2,599.6 L856.2,602.3 L856.2,605.1 L854.9,606.4 L854.9,609.1 L854.9,611.8 L854.9,614.5 L854.9,617.2 L854.9,619.9 L854.9,622.7 L854.9,625.4 L854.9,628.1 L854.9,630.8 L854.2,632.8 L853.5,634.8 L853.5,637.6 L853.5,640.3 L853.5,643.0 L853.5,645.7 L853.5,648.4 L853.5,651.1 L853.5,653.8 L853.5,656.5 L853.5,659.2 L852.2,660.6 L852.2,663.3 L852.2,666.0 L852.2,668.7 L852.2,671.4 L852.2,674.1 L852.2,676.8 L852.2,679.5 L852.2,682.2 L850.8,683.6 L850.8,686.3 L850.2,688.3 L849.5,690.4 L849.5,693.1 L848.8,695.1 L847.4,696.5 L844.7,696.5 L843.4,697.8 L840.7,697.8 L838.0,697.8 L836.6,699.2 L835.9,701.2 L834.6,702.6 L834.6,705.3 L833.2,706.6 L833.2,709.3 L833.2,712.0 L833.2,714.7 L832.6,716.8 L831.9,718.8 L831.9,721.5 L832.6,723.5 L834.6,722.9 L834.6,720.2 L835.3,718.1 L835.9,716.1 L835.9,713.4 L837.3,712.0 L838.6,710.7 L840.7,710.0 L843.4,710.0 L846.1,710.0 L847.4,711.4 L848.1,713.4 L849.5,714.7 L848.8,716.8 L848.1,718.8 L846.8,720.2 L846.8,722.9 L845.4,724.2 L845.4,726.9 L844.7,729.0 L844.1,731.0 L844.1,733.7 L844.1,736.4 L843.4,738.4 L842.7,740.5 L841.4,741.8 L841.4,744.5 L840.0,745.9 L838.0,746.6 L837.3,748.6 L835.9,749.9 L834.6,751.3 L833.2,752.7 L832.6,754.7 L831.9,756.7 L831.2,758.8 L830.5,760.8 L829.2,762.1 L827.8,763.5 L826.5,764.8 L825.1,766.2 L823.8,767.6 L822.4,768.9 L820.4,769.6 L819.7,771.6 L818.3,773.0 L817.0,774.3 L815.6,775.7 L814.3,777.0 L812.9,778.4 L811.6,779.7 L810.2,781.1 L808.9,782.4 L808.2,784.5 L807.5,786.5 L806.8,788.5 L805.5,789.9 L804.8,791.9 L803.4,793.3 L801.4,794.0 L798.7,794.0 L796.0,794.0 L793.3,794.0 L791.2,793.3 L789.2,792.6 L787.9,791.2 L787.2,789.2 L785.8,787.9 L786.5,785.8 L787.2,783.8 L788.5,782.4 L790.6,781.8 L793.3,781.8 L795.3,782.4 L796.7,782.4 L798.0,781.1 L798.0,778.4 L799.4,777.0 L800.7,775.7 L801.4,773.6 L802.8,772.3 L804.1,770.9 L805.5,769.6 L806.8,768.2 L808.2,766.9 L809.5,765.5 L810.9,764.2 L812.2,762.8 L813.6,761.5 L814.9,760.1 L816.3,758.8 L817.7,757.4 L819.0,756.0 L819.7,754.0 L821.0,752.7 L820.4,750.6 L817.7,750.6 L816.3,752.0 L814.3,752.7 L812.2,753.3 L810.9,754.7 L809.5,756.0 L808.2,757.4 L806.8,758.8 L804.8,759.4 L803.4,760.8 L802.8,762.8 L801.4,764.2 L800.7,766.2 L799.4,767.6 L797.3,768.2 L796.0,769.6 L794.6,770.9 L793.3,772.3 L791.2,773.0 L789.2,773.6 L786.5,773.6 L785.2,772.3 L782.4,772.3 L781.1,770.9 L780.4,768.9 L779.1,767.6 L778.4,765.5 L777.0,766.9 L775.7,768.2 L774.3,769.6 L773.0,770.9 L771.6,772.3 L769.6,773.0 L767.6,773.6 L766.2,775.0 L763.5,775.0 L760.8,775.0 L758.1,775.0 L756.0,774.3 L754.0,773.6 L752.7,772.3 L749.9,772.3 L748.6,770.9 L746.6,770.3 L744.5,769.6 L742.5,768.9 L740.5,768.2 L738.4,767.6 L737.1,766.2 L735.7,764.8 L735.7,762.1 L735.7,759.4 L734.4,758.1 L734.4,755.4 L734.4,752.7 L733.0,751.3 L733.0,748.6 L733.0,745.9 L733.0,743.2 L732.3,741.1 L731.7,739.1 L731.0,737.1 L730.3,735.1 L730.3,732.3 L729.0,731.0 L729.0,728.3 L727.6,726.9 L727.6,724.2 L726.9,722.2 L726.2,720.2 L725.6,718.1 L724.9,716.1 L724.2,714.1 L723.5,712.0 L723.5,709.3 L722.9,707.3 L722.2,705.3 L720.8,703.9 L719.5,702.6 L718.8,700.5 L717.4,699.2 L716.1,697.8 L714.7,696.5 L713.4,695.1 L712.0,693.8 L710.0,693.1 L708.0,692.4 L706.6,691.0 L703.9,691.0 L702.6,689.7 L699.8,689.7 L698.5,688.3 L695.8,688.3 L694.4,687.0 L691.7,687.0 L689.7,687.7 L689.0,689.7 L688.3,691.7 L686.3,692.4 L684.3,693.1 L682.2,693.8 L680.2,693.1 L678.2,692.4 L676.8,691.0 L674.8,690.4 L673.4,689.0 L672.1,687.7 L670.7,686.3 L669.4,684.9 L668.7,682.9 L668.0,680.9 L668.0,678.2 L668.0,675.5 L668.0,672.8 L668.0,670.1 L668.0,667.3 L668.0,664.6 L668.0,661.9 L668.0,659.2 L668.0,656.5 L668.0,653.8 L669.4,652.4 L669.4,649.7 L669.4,647.0 L668.0,645.7 L668.0,643.0 L667.3,640.9 L666.0,639.6 L664.6,638.2 L663.3,636.9 L661.9,635.5 L660.6,634.2 L659.2,632.8 L657.9,631.5 L656.5,630.1 L655.2,628.8 L654.5,626.7 L653.1,625.4 L651.8,624.0 L650.4,622.7 L649.1,621.3 L647.7,619.9 L646.4,618.6 L645.0,617.2 L644.3,615.2 L643.0,613.9 L642.3,615.9 L642.3,618.6 L641.6,620.6 L640.3,622.0 L638.9,623.3 L636.2,623.3 L634.8,622.0 L632.1,622.0 L630.8,620.6 L628.8,619.9 L627.4,618.6 L625.4,617.9 L624.0,616.6 L622.7,615.2 L621.3,613.9 L619.9,612.5 L619.3,610.5 L617.9,609.1 L616.6,607.8 L616.6,605.1 L615.2,603.7 L613.9,602.3 L613.2,600.3 L611.8,599.0 L611.1,596.9 L609.8,595.6 L609.8,592.9 L609.1,590.8 L608.4,588.8 L608.4,586.1 L608.4,583.4 L608.4,580.7 L608.4,578.0 L608.4,575.3 L608.4,572.6 L608.4,569.8 L607.1,568.5 L606.4,566.5 L605.7,564.4 L604.4,563.1 L603.7,561.0 L602.3,559.7 L601.0,558.3 L600.3,556.3 L598.3,555.6 L597.6,553.6 L595.6,552.9 L594.9,550.9 L592.9,550.2 L591.5,548.9 L590.2,547.5 L588.8,546.1 L586.8,545.5 L584.7,544.8 L583.4,543.4 L582.7,541.4 L581.4,540.1 L580.7,538.0 L580.0,536.0 L578.6,534.6 L578.0,532.6 L577.3,530.6 L575.9,529.2 L575.3,527.2 L574.6,525.2 L573.2,523.8 L573.2,521.1 L572.6,519.1 L571.9,517.0 L571.9,514.3 L571.2,512.3 L570.5,510.3 L568.5,509.6 L567.1,508.2 L566.5,506.2 L565.8,504.2 L565.1,502.1 L565.1,499.4 L565.1,496.7 L565.1,494.0 L564.4,492.0 L563.8,489.9 L563.8,487.2 L562.4,485.9 L561.0,484.5 L559.7,483.2 L559.0,481.1 L557.7,479.8 L556.3,478.4 L554.9,477.1 L553.6,475.7 L552.9,473.7 L552.2,471.7 L551.6,469.6 L550.9,467.6 L550.2,465.6 L550.2,462.9 L548.9,461.5 L546.8,460.8 L545.5,459.5 L544.1,458.1 L543.4,456.1 L542.1,454.7 L542.1,452.0 L542.1,449.3 L543.4,448.0 L543.4,445.3 L543.4,442.6 L543.4,439.8 L543.4,437.1 L543.4,434.4 L543.4,431.7 L544.1,429.7 L544.8,427.7 L545.5,425.6 L546.1,423.6 L546.1,420.9 L546.1,418.2 L546.8,416.1 L548.2,414.8 L549.5,413.4 L550.9,412.1 L552.9,411.4 L554.9,410.7 L555.6,408.7 L555.6,406.0 L555.6,403.3 L557.0,401.9 L558.3,400.6 L560.4,399.9 L563.1,399.9 L564.4,401.2 L565.8,399.9 L566.5,397.9 L566.5,395.2 L566.5,392.4 L566.5,389.7 L566.5,387.0 L565.8,385.0 L565.1,383.0 L566.5,381.6 L566.5,378.9 L566.5,376.2 L566.5,373.5 L566.5,370.8 L567.8,369.4 L567.8,366.7 L567.8,364.0 L567.8,361.3 L567.8,358.6 L567.8,355.9 L567.8,353.2 L567.8,350.5 L567.1,348.4 L566.5,346.4 L566.5,343.7 L566.5,341.0 L566.5,338.3 L566.5,335.6 L566.5,332.9 L565.1,331.5 L563.8,330.2 L563.8,327.4 L562.4,326.1 L562.4,323.4 L562.4,320.7 L562.4,318.0 L560.4,317.3 L559.0,315.9 L557.0,315.3 L555.6,313.9 L554.3,312.6 L553.6,310.5 L552.9,308.5 L552.9,305.8 L551.6,304.4 L549.5,303.8 L547.5,303.1 L545.5,302.4 L542.8,302.4 L541.4,301.0 L538.7,301.0 L537.3,299.7 L534.6,299.7 L533.3,298.3 L530.6,298.3 L529.2,297.0 L527.2,296.3 L525.2,295.6 L523.8,294.3 L522.4,292.9 L521.8,290.9 L521.8,288.2 L521.8,285.5 L520.4,284.1 L519.1,282.8 L518.4,280.7 L517.0,279.4 L515.7,278.0 L515.0,276.0 L513.0,275.3 L511.6,274.0 L509.6,273.3 L507.6,272.6 L506.2,271.2 L504.8,269.9 L503.5,268.5 L502.1,267.2 L501.5,265.2 L500.1,263.8 L500.1,261.1 L499.4,259.1 L498.8,257.0 L498.1,255.0 L497.4,253.0 L496.7,250.9 L496.0,248.9 L495.4,246.9 L494.0,245.5 L492.7,244.2 L491.3,242.8 L489.9,241.5 L487.9,240.8 L485.9,240.1 L483.9,239.4 L482.5,238.1 L481.1,236.7 L479.8,235.4 L478.4,234.0 L478.4,231.3 L477.1,229.9 L475.7,228.6 L474.4,227.2 L473.0,225.9 L471.7,224.5 L469.6,223.9 L468.3,222.5 L466.2,221.8 L464.9,220.5 L463.5,219.1 L462.2,217.8 L460.8,216.4 L458.8,215.7 L457.4,214.4 L455.4,213.7 L454.1,212.3 L452.0,211.7 L450.7,210.3 L448.6,209.6 L447.3,208.3 L445.9,206.9 L444.6,205.6 L443.2,204.2 L442.6,202.2 L441.2,200.8 L439.2,200.2 L437.8,198.8 L437.1,196.8 L436.5,194.7 L435.1,193.4 L433.1,192.7 L431.7,194.1 L430.4,195.4 L429.0,196.8 L426.3,196.8 L424.3,196.1 L422.9,194.7 L420.9,194.1 L418.2,194.1 L415.5,194.1 L414.1,195.4 L412.8,196.8 L411.4,198.1 L408.7,198.1 L406.0,198.1 L405.3,200.2 L406.7,201.5 L406.7,204.2 L406.7,206.9 L408.0,208.3 L407.3,210.3 L406.7,212.3 L405.3,213.7 L403.3,214.4 L401.9,215.7 L399.2,215.7 L396.5,215.7 L393.8,215.7 L391.1,215.7 L388.4,215.7 L385.7,215.7 L383.0,215.7 L380.3,215.7 L377.6,215.7 L374.8,215.7 L373.5,217.1 L372.8,219.1 L371.5,220.5 L370.8,222.5 L369.4,223.9 L368.1,225.2 L366.7,226.6 L365.4,227.9 L364.0,229.3 L362.0,229.9 L359.9,230.6 L358.6,232.0 L357.9,234.0 L356.6,235.4 L354.5,236.0 L353.2,237.4 L351.8,238.8 L349.8,239.4 L348.4,240.8 L347.1,242.1 L345.1,242.8 L343.0,243.5 L341.0,244.2 L338.3,244.2 L335.6,244.2 L334.2,242.8 L331.5,242.8 L328.8,242.8 L327.4,241.5 L324.7,241.5 L322.0,241.5 L319.3,241.5 L316.6,241.5 L313.9,241.5 L311.2,241.5 L308.5,241.5 L305.8,241.5 L304.4,240.1 L301.7,240.1 L300.4,238.8 L297.7,238.8 L296.3,237.4 L294.3,236.7 L292.9,235.4 L291.6,234.0 L290.2,232.7 L289.5,230.6 L288.9,228.6 L288.9,225.9 L288.9,223.2 L288.9,220.5 L288.9,217.8 L290.2,216.4 L289.5,214.4 L288.9,212.3 L288.9,209.6 L287.5,208.3 L286.8,206.2 L286.1,204.2 L285.5,202.2 L284.1,200.8 L282.8,199.5 L281.4,198.1 L280.7,196.1 L279.4,194.7 L277.3,194.1 L276.0,192.7 L274.6,191.4 L273.3,190.0 L271.9,188.6 L270.6,187.3 L269.2,185.9 L267.9,184.6 L266.5,183.2 L264.5,182.6 L263.1,181.2 L261.8,179.8 L260.4,178.5 L259.1,177.1 L257.0,176.5 L255.7,175.1 L254.3,173.8 L253.0,172.4 L250.9,171.7 L249.6,170.4 L247.6,169.7 L245.5,169.0 L244.2,167.7 L242.1,167.0 L239.4,167.0 L238.1,165.6 L235.4,165.6 L232.7,165.6 L229.9,165.6 L227.2,165.6 L225.9,164.3 L223.2,164.3 L221.8,162.9 L219.1,162.9 L216.4,162.9 L213.7,162.9 L211.7,162.2 L209.6,161.6 L206.9,161.6 L204.2,161.6 L201.5,161.6 L198.8,161.6 L196.1,161.6 L193.4,161.6 L190.7,161.6 L188.0,161.6 L185.3,161.6 L182.6,161.6 L179.8,161.6 L177.8,160.9 L175.8,160.2 L174.4,158.9 L171.7,158.9 L169.0,158.9 L166.3,158.9 L163.6,158.9 L161.6,158.2 L159.5,157.5 L157.5,156.8 L155.5,156.1 L153.4,155.5 L151.4,154.8 L149.4,154.1 L147.3,153.4 L146.0,152.1 L143.3,152.1 L141.9,150.7 L139.2,150.7 L137.9,152.1 L135.8,152.8 L133.8,153.4 L131.1,153.4 L129.7,154.8 L127.7,155.5 L125.7,156.1 L124.3,157.5 L121.6,157.5 L118.9,157.5 L117.6,158.9 L114.8,158.9 L113.5,160.2 L110.8,160.2 L109.4,161.6 L106.7,161.6 L104.0,161.6 L102.7,162.9 L100.6,163.6 L99.3,164.9 L97.2,165.6 L95.9,167.0 L93.2,167.0 L90.5,167.0 L87.8,167.0 L85.1,167.0 L83.7,168.3 L81.0,168.3 L78.3,168.3 L76.9,167.0 L74.2,167.0 L72.9,165.6 L70.2,165.6 L68.8,164.3 L66.8,163.6 L65.4,162.2 L65.4,159.5 L65.4,156.8 L65.4,154.1 L66.1,152.1 L67.4,150.7 L68.8,149.4 L71.5,149.4 L72.9,148.0 L74.2,146.7 L75.6,145.3 L76.9,144.0 L79.0,143.3 L80.3,141.9 L81.7,140.6 L81.7,137.9 L81.7,135.2 L81.7,132.4 L81.0,130.4 L80.3,128.4 L79.6,126.4 L79.0,124.3 L77.6,123.0 L76.2,121.6 L74.9,120.3 L74.9,117.6 L74.2,115.5 L73.5,113.5 L73.5,110.8 L73.5,108.1 L72.9,106.0 L72.2,104.0 L72.2,101.3 L72.2,98.6 L70.2,97.9 L68.8,96.6 L67.4,95.2 L65.4,94.5 L63.4,93.9 L62.0,92.5 L60.7,91.1 L60.0,89.1 L60.0,86.4 L60.0,83.7 L61.4,82.3 L61.4,79.6 L61.4,76.9 L62.7,75.6 L62.7,72.9 L64.1,71.5 L65.4,70.2 L66.1,68.1 L68.1,67.4 L70.2,66.8 L72.9,66.8 L74.9,67.4 L76.9,68.1 L79.6,68.1 L82.3,68.1 L85.1,68.1 L87.8,68.1 L90.5,68.1 L93.2,68.1 L95.9,68.1 L98.6,68.1 L100.6,67.4 L102.0,66.1 L104.0,65.4 L106.7,65.4 L109.4,65.4 L112.1,65.4 L114.2,64.7 L115.5,63.4 L116.9,62.0 L118.9,61.4 L120.3,60.0 L781.1,791.2 L783.8,791.2 L785.8,791.9 L787.2,793.3 L787.9,795.3 L788.5,797.3 L787.2,798.7 L786.5,800.7 L785.2,802.1 L783.8,803.4 L782.4,804.8 L781.1,806.1 L779.7,807.5 L777.0,807.5 L775.0,808.2 L773.6,808.2 L771.6,807.5 L768.9,807.5 L767.6,808.9 L765.5,809.5 L764.2,810.9 L762.8,812.2 L761.5,813.6 L759.4,814.3 L758.8,816.3 L756.7,817.0 L755.4,818.3 L753.3,819.0 L752.0,820.4 L750.6,821.7 L748.6,822.4 L745.9,822.4 L743.2,822.4 L740.5,822.4 L739.1,821.0 L738.4,819.0 L738.4,816.3 L739.1,814.3 L740.5,812.9 L741.8,811.6 L744.5,811.6 L745.9,810.2 L747.2,808.9 L748.6,807.5 L750.6,806.8 L752.0,805.5 L754.0,804.8 L755.4,803.4 L756.7,802.1 L758.1,800.7 L760.1,800.1 L761.5,798.7 L762.8,797.3 L764.8,796.7 L767.6,796.7 L770.3,796.7 L773.0,796.7 L775.0,796.0 L776.4,794.6 L777.7,793.3 L779.1,791.9 L701.2,796.7 L703.9,796.7 L706.6,796.7 L709.3,796.7 L711.4,797.3 L712.7,798.7 L714.1,800.1 L714.7,802.1 L716.1,803.4 L717.4,804.8 L718.8,806.1 L721.5,806.1 L723.5,806.8 L725.6,807.5 L726.9,808.9 L729.0,809.5 L731.0,810.2 L733.0,810.9 L734.4,812.2 L735.7,813.6 L735.7,816.3 L734.4,817.7 L733.7,819.7 L731.7,820.4 L730.3,821.7 L730.3,824.4 L730.3,827.1 L730.3,829.8 L729.0,831.2 L727.6,832.6 L725.6,833.2 L724.2,834.6 L721.5,834.6 L720.2,835.9 L717.4,835.9 L714.7,835.9 L712.7,836.6 L710.7,837.3 L708.0,837.3 L705.3,837.3 L702.6,837.3 L701.2,835.9 L698.5,835.9 L695.8,835.9 L693.1,835.9 L690.4,835.9 L687.7,835.9 L684.9,835.9 L682.2,835.9 L679.5,835.9 L676.8,835.9 L674.1,835.9 L671.4,835.9 L669.4,835.3 L667.3,834.6 L665.3,833.9 L663.3,833.2 L662.6,831.2 L662.6,828.5 L662.6,825.8 L664.6,825.1 L666.0,823.8 L667.3,822.4 L668.7,821.0 L670.7,820.4 L670.7,817.7 L672.1,816.3 L672.8,814.3 L674.8,813.6 L676.1,812.2 L678.2,811.6 L680.9,811.6 L683.6,811.6 L686.3,811.6 L688.3,810.9 L690.4,810.2 L693.1,810.2 L695.1,809.5 L695.1,806.8 L695.8,804.8 L696.5,802.8 L697.8,801.4 L699.2,800.1 L699.8,798.0 L701.2,796.7 L634.8,821.0 L637.6,821.0 L638.9,822.4 L640.3,821.0 L641.6,822.4 L644.3,822.4 L645.0,824.4 L646.4,825.8 L646.4,828.5 L646.4,831.2 L645.0,832.6 L643.6,833.9 L642.3,835.3 L640.9,836.6 L639.6,838.0 L637.6,838.6 L636.2,840.0 L633.5,840.0 L630.8,840.0 L629.4,838.6 L628.1,837.3 L627.4,835.3 L626.0,833.9 L626.7,831.9 L627.4,829.8 L628.1,827.8 L628.8,825.8 L630.1,824.4 L631.5,823.1 L632.8,821.7 Z"/>
  </defs>

  <!-- Florida outline -->
  <use href="#fl" fill="none" stroke="#2A3559" stroke-width="10" stroke-linejoin="round" stroke-linecap="round"/>

  <!-- House icon -->
  <g id="icon" fill="none" stroke="#2A3559" stroke-width="10" stroke-linejoin="round" stroke-linecap="round">
    <!-- house body -->
    <rect x="521.2" y="395.0" width="96.4" height="33.7" rx="8"/>
    <!-- roof -->
    <path d="M 513.2,395.0 L 569.4,374.8 L 625.6,395.0"/>
    <!-- door -->
    <rect x="561.7" y="408.5" width="15.4" height="20.2" rx="4"/>
    <!-- window -->
    <rect x="535.7" y="405.1" width="17.3" height="12.1" rx="3"/>
    <!-- tree trunk -->
    <rect x="593.5" y="405.1" width="5.8" height="23.6" rx="3"/>
    <!-- tree crown -->
    <circle cx="596.4" cy="398.4" r="14.5"/>
  </g>
</svg>