<?xml version="1.0" encoding="UTF-8"?>
<svg xmlns="http://www.w3.org/2000/svg" width="640" height="420" viewBox="0 0 640 420" style="font-family:system-ui,Segoe UI,Roboto,Arial,sans-serif">
  <defs>
    <linearGradient id="bg" x1="0" y1="0" x2="1" y2="1">
      <stop offset="0%" stop-color="#0f172a"/>
      <stop offset="100%" stop-color="#1e293b"/>
    </linearGradient>
    <filter id="blur" x="-20%" y="-20%" width="140%" height="140%"><feGaussianBlur stdDeviation="4"/></filter>
  </defs>
  <rect width="640" height="420" fill="url(#bg)"/>
  <g transform="translate(350,120) scale(1.6)" opacity="0.25"><path d="M 60 60 L 180 60 L 220 100 L 200 130 L 140 140 L 120 170 L 100 170 L 90 150 L 60 150 Z" fill="#60a5fa" filter="url(#blur)"/></g>
  <g transform="translate(380,130)"><g transform="scale(0.9)" stroke="#f1f5f9" stroke-width="4"><line x1="60" y1="10" x2="60" y2="110"/><circle cx="60" cy="10" r="10" fill="#1c2541" stroke="#3a506b" stroke-width="3"/><path d="M10,90 Q60,140 110,90" fill="none"/><path d="M10,90 l-10,20 M110,90 l10,20"/><line x1="30" y1="60" x2="90" y2="60"/></g></g>
  <text x="20" y="400" fill="#9aa7b2" font-size="14">Background placeholder (replace with free stock photo related to rule of law)</text>
</svg>